<svg xmlns="http://www.w3.org/2000/svg" xmlns:xlink="http://www.w3.org/1999/xlink" width="500" zoomAndPan="magnify" viewBox="0 0 375 374.999991" height="500" preserveAspectRatio="xMidYMid meet" version="1.0"><defs><g/><clipPath id="b0a78336c7"><path d="M 94.066406 75 L 147 75 L 147 207 L 94.066406 207 Z M 94.066406 75 " clip-rule="nonzero"/></clipPath><clipPath id="1933980b26"><path d="M 94.066406 75 L 121 75 L 121 202 L 94.066406 202 Z M 94.066406 75 " clip-rule="nonzero"/></clipPath><clipPath id="4129bba873"><path d="M 94.066406 197 L 192 197 L 192 285 L 94.066406 285 Z M 94.066406 197 " clip-rule="nonzero"/></clipPath><clipPath id="e27de959f7"><path d="M 94.066406 228.476562 L 217.660156 228.476562 L 217.660156 300 L 94.066406 300 Z M 94.066406 228.476562 " clip-rule="nonzero"/></clipPath><clipPath id="217621d567"><path d="M 165 146 L 289.066406 146 L 289.066406 239 L 165 239 Z M 165 146 " clip-rule="nonzero"/></clipPath><clipPath id="4e1b7df520"><path d="M 191 116 L 289.066406 116 L 289.066406 203 L 191 203 Z M 191 116 " clip-rule="nonzero"/></clipPath></defs><path fill="#ffffff" d="M 181.941406 110.65625 L 181.921875 140.84375 L 146.25 120.292969 L 146.25 201.214844 L 120.117188 186.105469 L 120.136719 75 L 181.941406 110.65625 " fill-opacity="1" fill-rule="nonzero"/><path fill="#545454" d="M 155.773438 155.921875 L 181.921875 140.84375 L 146.25 120.292969 L 146.1875 150.378906 L 155.773438 155.921875 " fill-opacity="1" fill-rule="nonzero"/><g clip-path="url(#b0a78336c7)"><path fill="#545454" d="M 146.25 201.214844 L 136.75 206.691406 L 120.136719 197.085938 L 103.488281 206.6875 L 93.964844 201.183594 L 93.984375 90.078125 L 120.136719 75 L 120.117188 186.105469 L 146.25 201.214844 " fill-opacity="1" fill-rule="nonzero"/></g><g clip-path="url(#1933980b26)"><path fill="#000000" d="M 120.136719 75 L 120.117188 186.105469 L 93.964844 201.183594 L 93.984375 90.078125 L 120.136719 75 " fill-opacity="1" fill-rule="nonzero"/></g><g clip-path="url(#4129bba873)"><path fill="#000000" d="M 120.136719 197.085938 L 120.109375 239.632812 L 191.503906 198.402344 L 191.484375 228.585938 L 93.90625 284.894531 L 93.984375 212.164062 L 120.136719 197.085938 " fill-opacity="1" fill-rule="nonzero"/></g><path fill="#ffffff" d="M 146.269531 212.199219 L 120.136719 197.085938 L 120.109375 239.632812 L 146.261719 224.632812 L 146.269531 212.199219 " fill-opacity="1" fill-rule="nonzero"/><g clip-path="url(#e27de959f7)"><path fill="#545454" d="M 217.617188 243.695312 L 191.484375 228.585938 L 93.90625 284.894531 L 120.035156 300.003906 L 217.617188 243.695312 " fill-opacity="1" fill-rule="nonzero"/></g><path fill="#ffffff" d="M 191.503906 198.402344 L 201.027344 203.90625 L 201.007812 223.132812 L 217.636719 232.746094 L 217.617188 243.695312 L 191.484375 228.585938 L 191.503906 198.402344 " fill-opacity="1" fill-rule="nonzero"/><g clip-path="url(#217621d567)"><path fill="#545454" d="M 191.464844 146.367188 L 289.019531 202.582031 L 227.140625 238.242188 L 201.007812 223.132812 L 236.738281 202.550781 L 165.3125 161.445312 L 191.464844 146.367188 " fill-opacity="1" fill-rule="nonzero"/></g><path fill="#000000" d="M 201.027344 192.949219 L 201.007812 223.132812 L 236.738281 202.550781 L 210.726562 187.355469 L 201.027344 192.949219 " fill-opacity="1" fill-rule="nonzero"/><g clip-path="url(#4e1b7df520)"><path fill="#ffffff" d="M 289.019531 202.582031 L 289.039062 172.394531 L 191.484375 116.183594 L 191.464844 146.367188 L 289.019531 202.582031 " fill-opacity="1" fill-rule="nonzero"/></g><path fill="#000000" d="M 165.332031 150.410156 L 165.3125 161.445312 L 191.464844 146.367188 L 191.484375 116.183594 L 181.941406 121.683594 L 181.921875 140.84375 L 165.332031 150.410156 " fill-opacity="1" fill-rule="nonzero"/><g fill="#000000" fill-opacity="1"><g transform="translate(195.748035, 172.437825)"><g><path d="M 8.125 2.21875 C 8.28125 2.3125 8.359375 2.425781 8.359375 2.5625 C 8.367188 2.71875 8.3125 2.851562 8.1875 2.96875 L 7.3125 3.796875 C 7.1875 3.898438 7.03125 3.972656 6.84375 4.015625 C 6.65625 4.035156 6.488281 4 6.34375 3.90625 L 1.40625 0.875 C 1.269531 0.78125 1.195312 0.660156 1.1875 0.515625 C 1.164062 0.359375 1.21875 0.222656 1.34375 0.109375 L 12 -9.953125 C 12.132812 -10.078125 12.300781 -10.148438 12.5 -10.171875 C 12.675781 -10.203125 12.84375 -10.171875 13 -10.078125 L 13.984375 -9.46875 C 14.128906 -9.382812 14.203125 -9.265625 14.203125 -9.109375 C 14.210938 -8.960938 14.15625 -8.828125 14.03125 -8.703125 L 5.15625 -0.328125 C 5.03125 -0.210938 4.972656 -0.0820312 4.984375 0.0625 C 4.992188 0.21875 5.070312 0.335938 5.21875 0.421875 Z M 8.125 2.21875 "/></g></g></g><g fill="#000000" fill-opacity="1"><g transform="translate(208.86969, 180.525758)"><g><path d="M 8.171875 5.03125 C 7.921875 4.875 7.863281 4.65625 8 4.375 L 8.34375 3.8125 C 8.488281 3.582031 8.703125 3.265625 8.984375 2.859375 C 9.109375 2.566406 9.050781 2.347656 8.8125 2.203125 L 5.953125 0.4375 C 5.816406 0.351562 5.675781 0.316406 5.53125 0.328125 C 5.363281 0.316406 5.21875 0.359375 5.09375 0.453125 C 4.71875 0.660156 4.382812 0.851562 4.09375 1.03125 C 3.78125 1.207031 3.507812 1.351562 3.28125 1.46875 C 3.144531 1.550781 3.003906 1.597656 2.859375 1.609375 C 2.710938 1.617188 2.578125 1.585938 2.453125 1.515625 L 1.4375 0.890625 C 1.269531 0.785156 1.191406 0.640625 1.203125 0.453125 C 1.191406 0.265625 1.289062 0.113281 1.5 0 C 2.007812 -0.28125 2.660156 -0.648438 3.453125 -1.109375 C 4.222656 -1.554688 5.054688 -2.039062 5.953125 -2.5625 C 6.847656 -3.070312 7.773438 -3.613281 8.734375 -4.1875 C 9.691406 -4.726562 10.601562 -5.253906 11.46875 -5.765625 C 12.3125 -6.253906 13.085938 -6.703125 13.796875 -7.109375 C 14.472656 -7.503906 15.007812 -7.816406 15.40625 -8.046875 C 15.519531 -8.128906 15.664062 -8.171875 15.84375 -8.171875 C 16 -8.179688 16.132812 -8.148438 16.25 -8.078125 L 17.53125 -7.28125 C 17.800781 -7.113281 17.859375 -6.898438 17.703125 -6.640625 L 15.203125 -2.59375 L 13.453125 0.234375 L 12.328125 2.078125 L 11.640625 3.171875 L 11.25 3.828125 L 10.984375 4.25 L 10.703125 4.703125 L 10.265625 5.40625 C 10.160156 5.582031 10 5.691406 9.78125 5.734375 C 9.550781 5.796875 9.351562 5.773438 9.1875 5.671875 Z M 8.609375 -1.625 C 8.421875 -1.507812 8.320312 -1.363281 8.3125 -1.1875 C 8.289062 -1 8.363281 -0.859375 8.53125 -0.765625 L 9.796875 0.015625 C 9.953125 0.117188 10.144531 0.144531 10.375 0.09375 C 10.601562 0.0390625 10.769531 -0.0664062 10.875 -0.234375 C 11.082031 -0.554688 11.300781 -0.910156 11.53125 -1.296875 C 11.75 -1.679688 11.992188 -2.09375 12.265625 -2.53125 C 12.335938 -2.65625 12.363281 -2.78125 12.34375 -2.90625 C 12.300781 -3.007812 12.226562 -3.09375 12.125 -3.15625 C 12.007812 -3.226562 11.882812 -3.269531 11.75 -3.28125 C 11.570312 -3.269531 11.410156 -3.222656 11.265625 -3.140625 C 10.828125 -2.898438 10.382812 -2.648438 9.9375 -2.390625 C 9.5 -2.128906 9.054688 -1.875 8.609375 -1.625 Z M 8.609375 -1.625 "/></g></g></g><g fill="#000000" fill-opacity="1"><g transform="translate(224.851651, 190.376729)"><g><path d="M 18.53125 -4.578125 C 18.394531 -4.460938 18.238281 -4.394531 18.0625 -4.375 C 17.875 -4.34375 17.695312 -4.378906 17.53125 -4.484375 L 15.90625 -5.484375 C 15.769531 -5.566406 15.609375 -5.609375 15.421875 -5.609375 C 15.210938 -5.578125 15.050781 -5.5 14.9375 -5.375 L 6.03125 3.015625 C 5.914062 3.128906 5.769531 3.203125 5.59375 3.234375 C 5.394531 3.253906 5.210938 3.210938 5.046875 3.109375 L 4.09375 2.53125 C 3.957031 2.4375 3.882812 2.316406 3.875 2.171875 C 3.84375 2.015625 3.890625 1.878906 4.015625 1.765625 L 12.90625 -6.625 C 13.03125 -6.75 13.09375 -6.890625 13.09375 -7.046875 C 13.070312 -7.171875 12.992188 -7.273438 12.859375 -7.359375 L 11.203125 -8.375 C 11.054688 -8.46875 10.984375 -8.585938 10.984375 -8.734375 C 10.960938 -8.890625 11.015625 -9.023438 11.140625 -9.140625 L 12 -9.953125 C 12.132812 -10.078125 12.300781 -10.148438 12.5 -10.171875 C 12.675781 -10.203125 12.84375 -10.171875 13 -10.078125 L 19.3125 -6.1875 C 19.476562 -6.082031 19.5625 -5.957031 19.5625 -5.8125 C 19.570312 -5.664062 19.515625 -5.53125 19.390625 -5.40625 Z M 18.53125 -4.578125 "/></g></g></g><g fill="#000000" fill-opacity="1"><g transform="translate(239.385582, 199.335161)"><g><path d="M 17.578125 -5.171875 C 17.453125 -5.054688 17.296875 -4.984375 17.109375 -4.953125 C 16.910156 -4.929688 16.742188 -4.960938 16.609375 -5.046875 L 13.21875 -7.140625 C 13.082031 -7.222656 12.921875 -7.265625 12.734375 -7.265625 C 12.523438 -7.234375 12.363281 -7.15625 12.25 -7.03125 L 11.3125 -6.140625 C 11.175781 -6.015625 11.113281 -5.882812 11.125 -5.75 C 11.132812 -5.601562 11.210938 -5.484375 11.359375 -5.390625 L 13.59375 -4.015625 C 13.75 -3.921875 13.835938 -3.796875 13.859375 -3.640625 C 13.867188 -3.492188 13.804688 -3.359375 13.671875 -3.234375 L 12.8125 -2.421875 C 12.6875 -2.316406 12.53125 -2.242188 12.34375 -2.203125 C 12.132812 -2.179688 11.957031 -2.21875 11.8125 -2.3125 L 9.578125 -3.6875 C 9.429688 -3.78125 9.265625 -3.816406 9.078125 -3.796875 C 8.878906 -3.773438 8.71875 -3.703125 8.59375 -3.578125 L 5.15625 -0.328125 C 5.03125 -0.210938 4.972656 -0.0820312 4.984375 0.0625 C 4.992188 0.21875 5.070312 0.335938 5.21875 0.421875 L 8.59375 2.515625 C 8.738281 2.609375 8.816406 2.722656 8.828125 2.859375 C 8.835938 3.003906 8.78125 3.140625 8.65625 3.265625 L 7.765625 4.078125 C 7.640625 4.191406 7.488281 4.265625 7.3125 4.296875 C 7.113281 4.316406 6.945312 4.285156 6.8125 4.203125 L 1.40625 0.875 C 1.269531 0.78125 1.195312 0.660156 1.1875 0.515625 C 1.164062 0.359375 1.21875 0.222656 1.34375 0.109375 L 12 -9.953125 C 12.132812 -10.078125 12.300781 -10.148438 12.5 -10.171875 C 12.675781 -10.203125 12.84375 -10.171875 13 -10.078125 L 18.390625 -6.75 C 18.535156 -6.65625 18.613281 -6.535156 18.625 -6.390625 C 18.632812 -6.242188 18.570312 -6.109375 18.4375 -5.984375 Z M 17.578125 -5.171875 "/></g></g></g><g fill="#ffffff" fill-opacity="1"><g transform="translate(115.726614, 264.789209)"><g><path d="M 4.96875 -20.4375 C 5.113281 -20.519531 5.25 -20.53125 5.375 -20.46875 C 5.507812 -20.40625 5.601562 -20.289062 5.65625 -20.125 L 9.28125 -5.90625 C 9.320312 -5.738281 9.304688 -5.566406 9.234375 -5.390625 C 9.148438 -5.210938 9.046875 -5.085938 8.921875 -5.015625 L 7.5 -4.21875 C 7.28125 -4.09375 7.085938 -4.117188 6.921875 -4.296875 L 0.96875 -11.25 C 0.894531 -11.34375 0.804688 -11.34375 0.703125 -11.25 C 0.597656 -11.1875 0.566406 -11.078125 0.609375 -10.921875 L 2.8125 -2.28125 C 2.851562 -2.113281 2.84375 -1.941406 2.78125 -1.765625 C 2.707031 -1.585938 2.59375 -1.457031 2.4375 -1.375 L 1.4375 -0.8125 C 1.289062 -0.726562 1.148438 -0.71875 1.015625 -0.78125 C 0.890625 -0.84375 0.800781 -0.957031 0.75 -1.125 L -2.875 -15.34375 C -2.914062 -15.507812 -2.898438 -15.679688 -2.828125 -15.859375 C -2.753906 -16.035156 -2.640625 -16.164062 -2.484375 -16.25 L -1.09375 -17.046875 C -0.851562 -17.171875 -0.664062 -17.132812 -0.53125 -16.9375 L 5.453125 -9.984375 C 5.503906 -9.890625 5.585938 -9.890625 5.703125 -9.984375 C 5.785156 -10.066406 5.8125 -10.175781 5.78125 -10.3125 L 3.578125 -18.96875 C 3.535156 -19.132812 3.554688 -19.3125 3.640625 -19.5 C 3.722656 -19.675781 3.835938 -19.804688 3.984375 -19.890625 Z M 4.96875 -20.4375 "/></g></g></g><g fill="#ffffff" fill-opacity="1"><g transform="translate(131.583677, 255.88495)"><g><path d="M -1.484375 -16.8125 C -1.335938 -16.894531 -1.203125 -16.90625 -1.078125 -16.84375 C -0.941406 -16.78125 -0.847656 -16.664062 -0.796875 -16.5 L 2.8125 -2.28125 C 2.851562 -2.113281 2.84375 -1.941406 2.78125 -1.765625 C 2.707031 -1.585938 2.597656 -1.457031 2.453125 -1.375 L 1.4375 -0.8125 C 1.289062 -0.726562 1.148438 -0.71875 1.015625 -0.78125 C 0.890625 -0.84375 0.800781 -0.957031 0.75 -1.125 C 0.726562 -1.164062 0.664062 -1.410156 0.5625 -1.859375 C 0.4375 -2.265625 0.289062 -2.8125 0.125 -3.5 C -0.03125 -4.15625 -0.21875 -4.90625 -0.4375 -5.75 C -0.65625 -6.59375 -0.875 -7.453125 -1.09375 -8.328125 C -1.3125 -9.191406 -1.53125 -10.035156 -1.75 -10.859375 C -1.957031 -11.703125 -2.144531 -12.453125 -2.3125 -13.109375 C -2.476562 -13.753906 -2.613281 -14.28125 -2.71875 -14.6875 C -2.8125 -15.09375 -2.863281 -15.3125 -2.875 -15.34375 C -2.914062 -15.507812 -2.898438 -15.679688 -2.828125 -15.859375 C -2.753906 -16.035156 -2.640625 -16.164062 -2.484375 -16.25 Z M -1.484375 -16.8125 "/></g></g></g><g fill="#ffffff" fill-opacity="1"><g transform="translate(140.977049, 250.610265)"><g><path d="M 4.984375 -18.421875 C 5.023438 -18.253906 5.007812 -18.085938 4.9375 -17.921875 C 4.875 -17.734375 4.757812 -17.59375 4.59375 -17.5 L 2.9375 -16.5625 C 2.789062 -16.488281 2.675781 -16.367188 2.59375 -16.203125 C 2.507812 -16.003906 2.492188 -15.820312 2.546875 -15.65625 L 5.5625 -3.828125 C 5.601562 -3.660156 5.59375 -3.488281 5.53125 -3.3125 C 5.457031 -3.132812 5.335938 -3 5.171875 -2.90625 L 4.203125 -2.359375 C 4.054688 -2.273438 3.914062 -2.265625 3.78125 -2.328125 C 3.632812 -2.378906 3.535156 -2.488281 3.484375 -2.65625 L 0.46875 -14.5 C 0.425781 -14.65625 0.335938 -14.78125 0.203125 -14.875 C 0.078125 -14.914062 -0.0546875 -14.894531 -0.203125 -14.8125 L -1.890625 -13.859375 C -2.035156 -13.773438 -2.175781 -13.769531 -2.3125 -13.84375 C -2.445312 -13.894531 -2.535156 -14.003906 -2.578125 -14.171875 L -2.875 -15.34375 C -2.914062 -15.507812 -2.898438 -15.679688 -2.828125 -15.859375 C -2.753906 -16.035156 -2.640625 -16.164062 -2.484375 -16.25 L 3.984375 -19.890625 C 4.140625 -19.984375 4.28125 -19.992188 4.40625 -19.921875 C 4.539062 -19.859375 4.632812 -19.742188 4.6875 -19.578125 Z M 4.984375 -18.421875 "/></g></g></g><g fill="#ffffff" fill-opacity="1"><g transform="translate(155.863642, 242.250957)"><g><path d="M 4.015625 -17.875 C 4.054688 -17.707031 4.039062 -17.539062 3.96875 -17.375 C 3.894531 -17.1875 3.785156 -17.050781 3.640625 -16.96875 L 0.171875 -15.03125 C 0.0234375 -14.945312 -0.0859375 -14.820312 -0.171875 -14.65625 C -0.242188 -14.457031 -0.253906 -14.273438 -0.203125 -14.109375 L 0.109375 -12.875 C 0.148438 -12.695312 0.242188 -12.582031 0.390625 -12.53125 C 0.523438 -12.46875 0.664062 -12.472656 0.8125 -12.546875 L 3.09375 -13.84375 C 3.257812 -13.9375 3.410156 -13.953125 3.546875 -13.890625 C 3.679688 -13.828125 3.769531 -13.707031 3.8125 -13.53125 L 4.09375 -12.390625 C 4.132812 -12.222656 4.117188 -12.046875 4.046875 -11.859375 C 3.972656 -11.671875 3.863281 -11.535156 3.71875 -11.453125 L 1.421875 -10.171875 C 1.273438 -10.085938 1.160156 -9.957031 1.078125 -9.78125 C 1.003906 -9.59375 0.988281 -9.414062 1.03125 -9.25 L 2.203125 -4.671875 C 2.242188 -4.503906 2.335938 -4.390625 2.484375 -4.328125 C 2.617188 -4.265625 2.757812 -4.273438 2.90625 -4.359375 L 6.359375 -6.296875 C 6.515625 -6.390625 6.65625 -6.40625 6.78125 -6.34375 C 6.914062 -6.257812 7.007812 -6.140625 7.0625 -5.984375 L 7.328125 -4.8125 C 7.378906 -4.644531 7.367188 -4.476562 7.296875 -4.3125 C 7.222656 -4.132812 7.113281 -4.003906 6.96875 -3.921875 L 1.4375 -0.8125 C 1.289062 -0.726562 1.148438 -0.71875 1.015625 -0.78125 C 0.890625 -0.84375 0.800781 -0.957031 0.75 -1.125 L -2.875 -15.34375 C -2.914062 -15.507812 -2.898438 -15.679688 -2.828125 -15.859375 C -2.753906 -16.035156 -2.640625 -16.164062 -2.484375 -16.25 L 3.03125 -19.34375 C 3.1875 -19.4375 3.328125 -19.453125 3.453125 -19.390625 C 3.585938 -19.328125 3.675781 -19.210938 3.71875 -19.046875 Z M 4.015625 -17.875 "/></g></g></g><g fill="#545454" fill-opacity="1"><g transform="translate(140.121362, 175.436563)"><g><path d="M -15.203125 -9.25 C -15.171875 -10.46875 -14.820312 -11.296875 -14.15625 -11.734375 C -13.488281 -12.160156 -12.554688 -12.195312 -11.359375 -11.84375 C -11.222656 -11.800781 -11.113281 -11.722656 -11.03125 -11.609375 C -10.925781 -11.484375 -10.878906 -11.351562 -10.890625 -11.21875 L -10.921875 -9.8125 C -10.921875 -9.664062 -10.972656 -9.566406 -11.078125 -9.515625 C -11.160156 -9.441406 -11.269531 -9.425781 -11.40625 -9.46875 L -11.5625 -9.515625 C -12.09375 -9.660156 -12.476562 -9.671875 -12.71875 -9.546875 C -12.9375 -9.390625 -13.050781 -9.109375 -13.0625 -8.703125 C -13.070312 -8.296875 -12.972656 -7.953125 -12.765625 -7.671875 C -12.523438 -7.378906 -12.144531 -7.160156 -11.625 -7.015625 C -11.34375 -6.941406 -11.082031 -6.898438 -10.84375 -6.890625 C -10.59375 -6.890625 -10.34375 -6.929688 -10.09375 -7.015625 C -9.820312 -7.117188 -9.546875 -7.265625 -9.265625 -7.453125 C -8.972656 -7.628906 -8.65625 -7.878906 -8.3125 -8.203125 C -7.863281 -8.597656 -7.445312 -8.921875 -7.0625 -9.171875 C -6.664062 -9.410156 -6.285156 -9.585938 -5.921875 -9.703125 C -5.535156 -9.796875 -5.160156 -9.832031 -4.796875 -9.8125 C -4.421875 -9.789062 -4.015625 -9.71875 -3.578125 -9.59375 C -2.359375 -9.25 -1.4375 -8.664062 -0.8125 -7.84375 C -0.175781 -7.039062 0.128906 -6.019531 0.109375 -4.78125 C 0.078125 -3.550781 -0.269531 -2.71875 -0.9375 -2.28125 C -1.59375 -1.84375 -2.523438 -1.796875 -3.734375 -2.140625 L -4.1875 -2.28125 C -4.320312 -2.300781 -4.4375 -2.378906 -4.53125 -2.515625 C -4.601562 -2.628906 -4.640625 -2.75 -4.640625 -2.875 L -4.609375 -4.3125 C -4.609375 -4.4375 -4.566406 -4.53125 -4.484375 -4.59375 C -4.390625 -4.65625 -4.273438 -4.675781 -4.140625 -4.65625 L -3.546875 -4.46875 C -3.003906 -4.300781 -2.625 -4.296875 -2.40625 -4.453125 C -2.175781 -4.617188 -2.054688 -4.90625 -2.046875 -5.3125 C -2.035156 -5.71875 -2.140625 -6.070312 -2.359375 -6.375 C -2.578125 -6.65625 -2.953125 -6.878906 -3.484375 -7.046875 C -3.742188 -7.128906 -4 -7.171875 -4.25 -7.171875 C -4.5 -7.179688 -4.753906 -7.140625 -5.015625 -7.046875 C -5.273438 -6.953125 -5.550781 -6.804688 -5.84375 -6.609375 C -6.125 -6.410156 -6.4375 -6.164062 -6.78125 -5.875 C -7.226562 -5.476562 -7.640625 -5.160156 -8.015625 -4.921875 C -8.398438 -4.679688 -8.785156 -4.507812 -9.171875 -4.40625 C -9.546875 -4.289062 -9.921875 -4.238281 -10.296875 -4.25 C -10.679688 -4.269531 -11.085938 -4.34375 -11.515625 -4.46875 C -12.710938 -4.820312 -13.632812 -5.40625 -14.28125 -6.21875 C -14.914062 -7.007812 -15.222656 -8.019531 -15.203125 -9.25 Z M -15.203125 -9.25 "/></g></g></g><g fill="#545454" fill-opacity="1"><g transform="translate(140.328986, 165.883781)"><g><path d="M -13.359375 -12.546875 C -13.191406 -12.503906 -13.050781 -12.40625 -12.9375 -12.25 C -12.820312 -12.09375 -12.765625 -11.929688 -12.765625 -11.765625 L -12.859375 -7.796875 C -12.859375 -7.628906 -12.804688 -7.46875 -12.703125 -7.3125 C -12.578125 -7.15625 -12.429688 -7.050781 -12.265625 -7 L -11.015625 -6.65625 C -10.847656 -6.59375 -10.707031 -6.609375 -10.59375 -6.703125 C -10.46875 -6.785156 -10.398438 -6.910156 -10.390625 -7.078125 L -10.34375 -9.703125 C -10.332031 -9.890625 -10.269531 -10.023438 -10.15625 -10.109375 C -10.03125 -10.191406 -9.882812 -10.207031 -9.71875 -10.15625 L -8.59375 -9.828125 C -8.425781 -9.773438 -8.28125 -9.675781 -8.15625 -9.53125 C -8.03125 -9.363281 -7.972656 -9.191406 -7.984375 -9.015625 L -8.03125 -6.390625 C -8.039062 -6.222656 -7.988281 -6.0625 -7.875 -5.90625 C -7.75 -5.75 -7.601562 -5.648438 -7.4375 -5.609375 L -2.890625 -4.28125 C -2.722656 -4.226562 -2.582031 -4.25 -2.46875 -4.34375 C -2.34375 -4.414062 -2.28125 -4.535156 -2.28125 -4.703125 L -2.1875 -8.671875 C -2.1875 -8.847656 -2.125 -8.976562 -2 -9.0625 C -1.875 -9.144531 -1.726562 -9.160156 -1.5625 -9.109375 L -0.421875 -8.765625 C -0.253906 -8.710938 -0.113281 -8.617188 0 -8.484375 C 0.113281 -8.328125 0.171875 -8.164062 0.171875 -8 L 0.03125 -1.65625 C 0.03125 -1.488281 -0.03125 -1.363281 -0.15625 -1.28125 C -0.269531 -1.1875 -0.410156 -1.164062 -0.578125 -1.21875 L -14.671875 -5.328125 C -14.835938 -5.367188 -14.984375 -5.46875 -15.109375 -5.625 C -15.210938 -5.769531 -15.265625 -5.929688 -15.265625 -6.109375 L -15.125 -12.4375 C -15.125 -12.613281 -15.066406 -12.742188 -14.953125 -12.828125 C -14.816406 -12.910156 -14.671875 -12.929688 -14.515625 -12.890625 Z M -13.359375 -12.546875 "/></g></g></g><g fill="#545454" fill-opacity="1"><g transform="translate(140.538893, 156.226025)"><g><path d="M -15.203125 -9.25 C -15.171875 -10.46875 -14.820312 -11.296875 -14.15625 -11.734375 C -13.488281 -12.160156 -12.554688 -12.195312 -11.359375 -11.84375 C -11.222656 -11.800781 -11.113281 -11.722656 -11.03125 -11.609375 C -10.925781 -11.484375 -10.878906 -11.351562 -10.890625 -11.21875 L -10.921875 -9.8125 C -10.921875 -9.664062 -10.972656 -9.566406 -11.078125 -9.515625 C -11.160156 -9.441406 -11.269531 -9.425781 -11.40625 -9.46875 L -11.5625 -9.515625 C -12.09375 -9.660156 -12.476562 -9.671875 -12.71875 -9.546875 C -12.9375 -9.390625 -13.050781 -9.109375 -13.0625 -8.703125 C -13.070312 -8.296875 -12.972656 -7.953125 -12.765625 -7.671875 C -12.523438 -7.378906 -12.144531 -7.160156 -11.625 -7.015625 C -11.34375 -6.941406 -11.082031 -6.898438 -10.84375 -6.890625 C -10.59375 -6.890625 -10.34375 -6.929688 -10.09375 -7.015625 C -9.820312 -7.117188 -9.546875 -7.265625 -9.265625 -7.453125 C -8.972656 -7.628906 -8.65625 -7.878906 -8.3125 -8.203125 C -7.863281 -8.597656 -7.445312 -8.921875 -7.0625 -9.171875 C -6.664062 -9.410156 -6.285156 -9.585938 -5.921875 -9.703125 C -5.535156 -9.796875 -5.160156 -9.832031 -4.796875 -9.8125 C -4.421875 -9.789062 -4.015625 -9.71875 -3.578125 -9.59375 C -2.359375 -9.25 -1.4375 -8.664062 -0.8125 -7.84375 C -0.175781 -7.039062 0.128906 -6.019531 0.109375 -4.78125 C 0.078125 -3.550781 -0.269531 -2.71875 -0.9375 -2.28125 C -1.59375 -1.84375 -2.523438 -1.796875 -3.734375 -2.140625 L -4.1875 -2.28125 C -4.320312 -2.300781 -4.4375 -2.378906 -4.53125 -2.515625 C -4.601562 -2.628906 -4.640625 -2.75 -4.640625 -2.875 L -4.609375 -4.3125 C -4.609375 -4.4375 -4.566406 -4.53125 -4.484375 -4.59375 C -4.390625 -4.65625 -4.273438 -4.675781 -4.140625 -4.65625 L -3.546875 -4.46875 C -3.003906 -4.300781 -2.625 -4.296875 -2.40625 -4.453125 C -2.175781 -4.617188 -2.054688 -4.90625 -2.046875 -5.3125 C -2.035156 -5.71875 -2.140625 -6.070312 -2.359375 -6.375 C -2.578125 -6.65625 -2.953125 -6.878906 -3.484375 -7.046875 C -3.742188 -7.128906 -4 -7.171875 -4.25 -7.171875 C -4.5 -7.179688 -4.753906 -7.140625 -5.015625 -7.046875 C -5.273438 -6.953125 -5.550781 -6.804688 -5.84375 -6.609375 C -6.125 -6.410156 -6.4375 -6.164062 -6.78125 -5.875 C -7.226562 -5.476562 -7.640625 -5.160156 -8.015625 -4.921875 C -8.398438 -4.679688 -8.785156 -4.507812 -9.171875 -4.40625 C -9.546875 -4.289062 -9.921875 -4.238281 -10.296875 -4.25 C -10.679688 -4.269531 -11.085938 -4.34375 -11.515625 -4.46875 C -12.710938 -4.820312 -13.632812 -5.40625 -14.28125 -6.21875 C -14.914062 -7.007812 -15.222656 -8.019531 -15.203125 -9.25 Z M -15.203125 -9.25 "/></g></g></g><g fill="#545454" fill-opacity="1"><g transform="translate(140.746517, 146.673243)"><g><path d="M -15.203125 -9.25 C -15.171875 -10.46875 -14.820312 -11.296875 -14.15625 -11.734375 C -13.488281 -12.160156 -12.554688 -12.195312 -11.359375 -11.84375 C -11.222656 -11.800781 -11.113281 -11.722656 -11.03125 -11.609375 C -10.925781 -11.484375 -10.878906 -11.351562 -10.890625 -11.21875 L -10.921875 -9.8125 C -10.921875 -9.664062 -10.972656 -9.566406 -11.078125 -9.515625 C -11.160156 -9.441406 -11.269531 -9.425781 -11.40625 -9.46875 L -11.5625 -9.515625 C -12.09375 -9.660156 -12.476562 -9.671875 -12.71875 -9.546875 C -12.9375 -9.390625 -13.050781 -9.109375 -13.0625 -8.703125 C -13.070312 -8.296875 -12.972656 -7.953125 -12.765625 -7.671875 C -12.523438 -7.378906 -12.144531 -7.160156 -11.625 -7.015625 C -11.34375 -6.941406 -11.082031 -6.898438 -10.84375 -6.890625 C -10.59375 -6.890625 -10.34375 -6.929688 -10.09375 -7.015625 C -9.820312 -7.117188 -9.546875 -7.265625 -9.265625 -7.453125 C -8.972656 -7.628906 -8.65625 -7.878906 -8.3125 -8.203125 C -7.863281 -8.597656 -7.445312 -8.921875 -7.0625 -9.171875 C -6.664062 -9.410156 -6.285156 -9.585938 -5.921875 -9.703125 C -5.535156 -9.796875 -5.160156 -9.832031 -4.796875 -9.8125 C -4.421875 -9.789062 -4.015625 -9.71875 -3.578125 -9.59375 C -2.359375 -9.25 -1.4375 -8.664062 -0.8125 -7.84375 C -0.175781 -7.039062 0.128906 -6.019531 0.109375 -4.78125 C 0.078125 -3.550781 -0.269531 -2.71875 -0.9375 -2.28125 C -1.59375 -1.84375 -2.523438 -1.796875 -3.734375 -2.140625 L -4.1875 -2.28125 C -4.320312 -2.300781 -4.4375 -2.378906 -4.53125 -2.515625 C -4.601562 -2.628906 -4.640625 -2.75 -4.640625 -2.875 L -4.609375 -4.3125 C -4.609375 -4.4375 -4.566406 -4.53125 -4.484375 -4.59375 C -4.390625 -4.65625 -4.273438 -4.675781 -4.140625 -4.65625 L -3.546875 -4.46875 C -3.003906 -4.300781 -2.625 -4.296875 -2.40625 -4.453125 C -2.175781 -4.617188 -2.054688 -4.90625 -2.046875 -5.3125 C -2.035156 -5.71875 -2.140625 -6.070312 -2.359375 -6.375 C -2.578125 -6.65625 -2.953125 -6.878906 -3.484375 -7.046875 C -3.742188 -7.128906 -4 -7.171875 -4.25 -7.171875 C -4.5 -7.179688 -4.753906 -7.140625 -5.015625 -7.046875 C -5.273438 -6.953125 -5.550781 -6.804688 -5.84375 -6.609375 C -6.125 -6.410156 -6.4375 -6.164062 -6.78125 -5.875 C -7.226562 -5.476562 -7.640625 -5.160156 -8.015625 -4.921875 C -8.398438 -4.679688 -8.785156 -4.507812 -9.171875 -4.40625 C -9.546875 -4.289062 -9.921875 -4.238281 -10.296875 -4.25 C -10.679688 -4.269531 -11.085938 -4.34375 -11.515625 -4.46875 C -12.710938 -4.820312 -13.632812 -5.40625 -14.28125 -6.21875 C -14.914062 -7.007812 -15.222656 -8.019531 -15.203125 -9.25 Z M -15.203125 -9.25 "/></g></g></g><g fill="#545454" fill-opacity="1"><g transform="translate(140.954142, 137.120461)"><g><path d="M -15.234375 -7.265625 C -15.234375 -7.429688 -15.175781 -7.554688 -15.0625 -7.640625 C -14.9375 -7.722656 -14.789062 -7.742188 -14.625 -7.703125 L -0.53125 -3.578125 C -0.363281 -3.523438 -0.222656 -3.429688 -0.109375 -3.296875 C 0.00390625 -3.140625 0.0625 -2.976562 0.0625 -2.8125 L 0.03125 -1.65625 C 0.03125 -1.488281 -0.03125 -1.363281 -0.15625 -1.28125 C -0.269531 -1.1875 -0.410156 -1.164062 -0.578125 -1.21875 C -0.628906 -1.226562 -0.875 -1.296875 -1.3125 -1.421875 C -1.726562 -1.535156 -2.269531 -1.691406 -2.9375 -1.890625 C -3.59375 -2.085938 -4.34375 -2.304688 -5.1875 -2.546875 C -6.007812 -2.785156 -6.859375 -3.035156 -7.734375 -3.296875 C -8.585938 -3.546875 -9.425781 -3.785156 -10.25 -4.015625 C -11.070312 -4.265625 -11.8125 -4.484375 -12.46875 -4.671875 C -13.113281 -4.859375 -13.632812 -5.015625 -14.03125 -5.140625 C -14.425781 -5.253906 -14.640625 -5.316406 -14.671875 -5.328125 C -14.835938 -5.367188 -14.984375 -5.46875 -15.109375 -5.625 C -15.210938 -5.769531 -15.265625 -5.929688 -15.265625 -6.109375 Z M -15.234375 -7.265625 "/></g></g></g><g fill="#545454" fill-opacity="1"><g transform="translate(141.051338, 132.648503)"><g><path d="M 0.15625 -6.890625 C 0.132812 -5.921875 -0.09375 -5.117188 -0.53125 -4.484375 C -0.945312 -3.835938 -1.5625 -3.367188 -2.375 -3.078125 C -3.757812 -2.585938 -5.507812 -2.65625 -7.625 -3.28125 C -8.664062 -3.582031 -9.628906 -3.972656 -10.515625 -4.453125 C -11.378906 -4.929688 -12.144531 -5.488281 -12.8125 -6.125 C -13.601562 -6.882812 -14.203125 -7.703125 -14.609375 -8.578125 C -14.992188 -9.453125 -15.175781 -10.367188 -15.15625 -11.328125 C -15.113281 -13.265625 -14.265625 -14.539062 -12.609375 -15.15625 C -11.929688 -15.394531 -11.15625 -15.492188 -10.28125 -15.453125 C -9.382812 -15.421875 -8.410156 -15.253906 -7.359375 -14.953125 C -5.253906 -14.328125 -3.523438 -13.375 -2.171875 -12.09375 C -0.578125 -10.550781 0.195312 -8.816406 0.15625 -6.890625 Z M -12.796875 -10.65625 C -12.804688 -10.125 -12.71875 -9.640625 -12.53125 -9.203125 C -12.320312 -8.765625 -12.0625 -8.375 -11.75 -8.03125 C -11.425781 -7.675781 -11.070312 -7.363281 -10.6875 -7.09375 C -10.289062 -6.820312 -9.894531 -6.585938 -9.5 -6.390625 C -9.101562 -6.203125 -8.738281 -6.046875 -8.40625 -5.921875 C -8.050781 -5.796875 -7.769531 -5.707031 -7.5625 -5.65625 C -7.363281 -5.582031 -7.09375 -5.515625 -6.75 -5.453125 C -6.40625 -5.367188 -6.035156 -5.304688 -5.640625 -5.265625 C -5.253906 -5.234375 -4.863281 -5.234375 -4.46875 -5.265625 C -4.0625 -5.304688 -3.691406 -5.40625 -3.359375 -5.5625 C -3.023438 -5.71875 -2.753906 -5.960938 -2.546875 -6.296875 C -2.335938 -6.609375 -2.226562 -7.03125 -2.21875 -7.5625 C -2.195312 -8.09375 -2.289062 -8.582031 -2.5 -9.03125 C -2.6875 -9.46875 -2.941406 -9.863281 -3.265625 -10.21875 C -3.578125 -10.5625 -3.9375 -10.867188 -4.34375 -11.140625 C -4.726562 -11.398438 -5.113281 -11.632812 -5.5 -11.84375 C -5.882812 -12.03125 -6.25 -12.1875 -6.59375 -12.3125 C -6.9375 -12.425781 -7.210938 -12.515625 -7.421875 -12.578125 C -7.628906 -12.640625 -7.90625 -12.707031 -8.25 -12.78125 C -8.582031 -12.863281 -8.953125 -12.921875 -9.359375 -12.953125 C -9.753906 -12.984375 -10.15625 -12.984375 -10.5625 -12.953125 C -10.945312 -12.921875 -11.3125 -12.828125 -11.65625 -12.671875 C -11.976562 -12.503906 -12.25 -12.265625 -12.46875 -11.953125 C -12.664062 -11.617188 -12.773438 -11.1875 -12.796875 -10.65625 Z M -12.796875 -10.65625 "/></g></g></g><g fill="#545454" fill-opacity="1"><g transform="translate(141.350682, 118.875702)"><g><path d="M -15.078125 -14.671875 C -15.078125 -14.835938 -15.019531 -14.960938 -14.90625 -15.046875 C -14.769531 -15.128906 -14.617188 -15.148438 -14.453125 -15.109375 L -0.375 -11 C -0.207031 -10.945312 -0.0664062 -10.847656 0.046875 -10.703125 C 0.171875 -10.535156 0.226562 -10.378906 0.21875 -10.234375 L 0.1875 -8.609375 C 0.175781 -8.347656 0.0507812 -8.191406 -0.1875 -8.140625 L -9.203125 -6.5625 C -9.316406 -6.539062 -9.359375 -6.460938 -9.328125 -6.328125 C -9.328125 -6.203125 -9.253906 -6.117188 -9.109375 -6.078125 L -0.53125 -3.578125 C -0.363281 -3.523438 -0.222656 -3.429688 -0.109375 -3.296875 C 0.00390625 -3.140625 0.0625 -2.972656 0.0625 -2.796875 L 0.03125 -1.65625 C 0.03125 -1.488281 -0.03125 -1.363281 -0.15625 -1.28125 C -0.269531 -1.1875 -0.410156 -1.164062 -0.578125 -1.21875 L -14.671875 -5.328125 C -14.835938 -5.367188 -14.984375 -5.46875 -15.109375 -5.625 C -15.210938 -5.769531 -15.265625 -5.929688 -15.265625 -6.109375 L -15.234375 -7.71875 C -15.222656 -7.988281 -15.097656 -8.132812 -14.859375 -8.15625 L -5.84375 -9.765625 C -5.726562 -9.765625 -5.679688 -9.84375 -5.703125 -10 C -5.734375 -10.101562 -5.8125 -10.179688 -5.9375 -10.234375 L -14.515625 -12.734375 C -14.679688 -12.773438 -14.820312 -12.878906 -14.9375 -13.046875 C -15.050781 -13.203125 -15.109375 -13.363281 -15.109375 -13.53125 Z M -15.078125 -14.671875 "/></g></g></g></svg>